<?xml version="1.0" encoding="utf-8"?>
<!-- Generator: Adobe Illustrator 24.1.2, SVG Export Plug-In . SVG Version: 6.00 Build 0)  -->
<svg version="1.1" id="Warstwa_1" xmlns="http://www.w3.org/2000/svg" xmlns:xlink="http://www.w3.org/1999/xlink" x="0px" y="0px"
	 viewBox="0 0 300 275" style="enable-background:new 0 0 300 275;" xml:space="preserve">
<style type="text/css">
	.st0{fill:#FFFFFF;}
	.st1{fill:#242D52;}
</style>
<g id="Group_28">
	<g id="Rectangle_Copy_4_x5F_2">
		<path class="st0" d="M24,10h252c2.2,0,4,1.8,4,4v227c0,2.2-1.8,4-4,4H24c-2.2,0-4-1.8-4-4V14C20,11.8,21.8,10,24,10z"/>
	</g>
	<path class="st1" d="M150.7,85.5h0.1l0.1-41c-0.1,0-0.2,0-0.3,0c-22.9,0-43.5,9.4-58.3,24.6l29.4,28.6
		C129.1,90.1,139.4,85.5,150.7,85.5z"/>
	<path class="st1" d="M150.7,166.2h-0.1l-0.1,41c0.1,0,0.2,0,0.3,0c22.9,0,43.5-9.4,58.3-24.6L179.6,154
		C172.3,161.5,162.1,166.2,150.7,166.2z"/>
	<path class="st1" d="M93.9,184.1l28.6-29.4c-7.5-7.3-12.2-17.6-12.2-28.9v-0.1l-41-0.1c0,0.1,0,0.2,0,0.3
		C69.3,148.7,78.7,169.3,93.9,184.1z"/>
	<path class="st1" d="M191.1,125.8L191.1,125.8l41,0.2c0-0.1,0-0.2,0-0.3c0-22.9-9.4-43.5-24.6-58.3l-28.6,29.4
		C186.4,104.3,191.1,114.5,191.1,125.8z"/>
</g>
</svg>
