<?xml version="1.0" encoding="utf-8"?>
<!-- Generator: Adobe Illustrator 24.1.2, SVG Export Plug-In . SVG Version: 6.00 Build 0)  -->
<svg version="1.1" id="Warstwa_1" xmlns="http://www.w3.org/2000/svg" xmlns:xlink="http://www.w3.org/1999/xlink" x="0px" y="0px"
	 viewBox="0 0 580 525" style="enable-background:new 0 0 580 525;" xml:space="preserve">
<style type="text/css">
	.st0{fill:#FFFFFF;}
	.st1{fill:#FAFAFA;stroke:#E5E9EA;}
	.st2{fill:#E5E9EA;}
	.st3{fill:#242D52;}
	.st4{fill:#F3603C;}
	.st5{fill-rule:evenodd;clip-rule:evenodd;fill:#FFFFFF;}
	.st6{fill:#FAFAFA;}
	.st7{fill-rule:evenodd;clip-rule:evenodd;fill:#1E272E;}
	.st8{fill-rule:evenodd;clip-rule:evenodd;fill:#343A40;}
</style>
<g id="Group_19">
	<g id="Group_26">
		<g id="Rectangle_Copy_4">
			<path class="st0" d="M24,10h252c2.2,0,4,1.8,4,4v227c0,2.2-1.8,4-4,4H24c-2.2,0-4-1.8-4-4V14C20,11.8,21.8,10,24,10z"/>
		</g>
		<g id="Group_23">
			<g id="Group_2">
				<rect id="Rectangle" x="36.2" y="26.2" class="st1" width="230.3" height="202.6"/>
				<rect id="Rectangle_2" x="36.2" y="127.5" class="st2" width="230.3" height="0.8"/>
				<rect id="Rectangle_3" x="36.2" y="146.5" class="st2" width="230.3" height="0.8"/>
				<rect id="Rectangle_4" x="36.2" y="165.5" class="st2" width="230.3" height="0.8"/>
				<rect id="Rectangle_5" x="36.2" y="184.5" class="st2" width="230.3" height="0.8"/>
				<rect id="Rectangle_6" x="36.2" y="51.5" class="st2" width="230.3" height="0.8"/>
				<rect id="Rectangle_7" x="36.2" y="32.5" class="st2" width="230.3" height="0.8"/>
				<rect id="Rectangle_8" x="36.2" y="70.5" class="st2" width="230.3" height="0.8"/>
				<rect id="Rectangle_9" x="36.2" y="89.5" class="st2" width="230.3" height="0.8"/>
				<rect id="Rectangle_10" x="36.2" y="108.5" class="st2" width="230.3" height="0.8"/>
				<rect id="Rectangle_11" x="36.2" y="203.5" class="st2" width="230.3" height="0.8"/>
				<rect id="Rectangle_12" x="36.2" y="222.5" class="st2" width="230.3" height="0.8"/>
			</g>
			<g id="Group_7">
				<path id="Rectangle_13" class="st3" d="M42.3,127.5h31.1v45.6c0,2.8-2.2,5-5,5H47.3c-2.8,0-5-2.2-5-5V127.5z"/>
				<path id="Rectangle_Copy_6" class="st4" d="M42.3,127.5h31.1v33c0,2.8-2.2,5-5,5H47.3c-2.8,0-5-2.2-5-5V127.5z"/>
			</g>
			<g id="Group_6">
				<path id="Rectangle_Copy" class="st4" d="M89.6,127.2h31.1V92.7c0-2.8-2.2-5-5-5H94.6c-2.8,0-5,2.2-5,5V127.2z"/>
				<path id="Rectangle_Copy_7" class="st3" d="M89.6,127.2h31.1v52c0,2.8-2.2,5-5,5H94.6c-2.8,0-5-2.2-5-5V127.2z"/>
			</g>
			<g id="Group_5">
				<path id="Rectangle_Copy_2" class="st3" d="M182.1,127.5h31.1V56.2c0-2.8-2.2-5-5-5h-21.1c-2.8,0-5,2.2-5,5V127.5z"/>
				<path id="Rectangle_Copy_8" class="st4" d="M182.1,127.5h31.1V75.3c0-2.8-2.2-5-5-5h-21.1c-2.8,0-5,2.2-5,5V127.5z"/>
			</g>
			<g id="Group">
				<path id="Rectangle_Copy_9" class="st3" d="M229.4,127.5h31.1V186c0,2.8-2.2,5-5,5h-21.1c-2.8,0-5-2.2-5-5V127.5z"/>
				<path id="Rectangle_Copy_3" class="st4" d="M229.4,127.5h31.1v45.8c0,2.8-2.2,5-5,5h-21.1c-2.8,0-5-2.2-5-5V127.5z"/>
			</g>
			<g id="Group_8">
				<g id="Rectangle_Copy_11">
					<path id="Rectangle_Copy_5" class="st4" d="M135.5,127.5h31.1v90.2c0,2.8-2.2,5-5,5h-21.1c-2.8,0-5-2.2-5-5V127.5z"/>
				</g>
				<path id="Rectangle_Copy_10" class="st3" d="M135.5,127.5h31.1v33.1c0,2.8-2.2,5-5,5h-21.1c-2.8,0-5-2.2-5-5V127.5z"/>
			</g>
		</g>
	</g>
	<g id="Group_28">
		<g id="Rectangle_Copy_4_x5F_2">
			<path class="st0" d="M304,10h252c2.2,0,4,1.8,4,4v227c0,2.2-1.8,4-4,4H304c-2.2,0-4-1.8-4-4V14C300,11.8,301.8,10,304,10z"/>
		</g>
		<path class="st3" d="M430.7,85.5c0,0,0.1,0,0.1,0l0.1-41c-0.1,0-0.2,0-0.3,0c-22.9,0-43.5,9.4-58.3,24.6l29.4,28.6
			C409.1,90.1,419.4,85.5,430.7,85.5z"/>
		<path class="st3" d="M430.7,166.2c0,0-0.1,0-0.1,0l-0.1,41c0.1,0,0.2,0,0.3,0c22.9,0,43.5-9.4,58.3-24.6L459.6,154
			C452.3,161.5,442.1,166.2,430.7,166.2z"/>
		<path class="st3" d="M373.9,184.1l28.6-29.4c-7.5-7.3-12.2-17.6-12.2-28.9c0,0,0-0.1,0-0.1l-41-0.1c0,0.1,0,0.2,0,0.3
			C349.3,148.7,358.7,169.3,373.9,184.1z"/>
		<path class="st3" d="M471.1,125.8c0,0,0,0.1,0,0.1l41,0.1c0-0.1,0-0.2,0-0.3c0-22.9-9.4-43.5-24.6-58.3l-28.6,29.4
			C466.4,104.3,471.1,114.5,471.1,125.8z"/>
	</g>
	<g id="Group_25">
		<g id="Rectangle_Copy_4_x5F_3">
			<path class="st0" d="M164,260h252c2.2,0,4,1.8,4,4v227c0,2.2-1.8,4-4,4H164c-2.2,0-4-1.8-4-4V264C160,261.8,161.8,260,164,260z"
				/>
		</g>
		<g id="Group_12">
			<path id="Rectangle_14" class="st4" d="M180.2,400.5h98c2.2,0,4,1.8,4,4v70.3c0,2.2-1.8,4-4,4h-98c-2.2,0-4-1.8-4-4v-70.3
				C176.2,402.3,178,400.5,180.2,400.5z"/>
			<g id="Group_11">
				<path id="_x2B_1.5_x25_" class="st5" d="M237.9,452.9c-0.6,0.6-1.3,0.9-2.2,0.9c-0.9,0-1.6-0.3-2.2-0.9
					c-0.6-0.6-0.9-1.3-0.9-2.2c0-0.9,0.3-1.6,0.9-2.2c0.6-0.6,1.3-0.9,2.2-0.9c0.9,0,1.6,0.3,2.2,0.9c0.6,0.6,0.9,1.3,0.9,2.2
					C238.8,451.6,238.5,452.3,237.9,452.9z M211.5,461.9v-14.1h-2.2l-3.4,3v2.4l3.3-3v11.7H211.5z M199.3,459.9V456h3.9v-1.8h-3.9
					v-3.9h-1.8v3.9h-3.9v1.8h3.9v3.9H199.3z M218.9,461.7c-0.3,0.3-0.6,0.4-1,0.4c-0.4,0-0.7-0.1-1-0.4c-0.3-0.3-0.4-0.6-0.4-1
					c0-0.4,0.1-0.7,0.4-1c0.3-0.3,0.6-0.4,1-0.4c0.4,0,0.7,0.1,1,0.4c0.3,0.3,0.4,0.6,0.4,1C219.3,461.1,219.2,461.4,218.9,461.7z
					 M226.5,462.1c1.5,0,2.6-0.4,3.5-1.3c0.9-0.9,1.3-2.1,1.3-3.5c0-1.4-0.4-2.5-1.3-3.3s-2.2-1.2-4-1.2h-1.5l0.3-2.9h5.9v-2.1h-7.9
					l-0.7,6.9h3.6c2.2,0,3.3,0.9,3.3,2.6c0,0.8-0.2,1.4-0.7,1.9c-0.5,0.5-1.1,0.7-1.9,0.7c-0.7,0-1.3-0.2-1.8-0.6
					c-0.5-0.4-0.7-1-0.7-1.8c0-0.2,0-0.4,0.1-0.7l-2.3,0.1c0,0.3,0,0.5,0,0.7c0,0.9,0.2,1.7,0.7,2.4c0.5,0.7,1,1.2,1.8,1.5
					C224.8,461.9,225.7,462.1,226.5,462.1z M236.8,461.9l7.5-14.1h-2l-7.4,14.1H236.8z M234.7,451.8c0.3,0.3,0.7,0.5,1.1,0.5
					c0.4,0,0.8-0.1,1.1-0.5c0.3-0.3,0.4-0.7,0.4-1.1c0-0.4-0.1-0.8-0.4-1.1c-0.3-0.3-0.7-0.4-1.1-0.4c-0.4,0-0.8,0.1-1.1,0.4
					c-0.3,0.3-0.5,0.7-0.5,1.1C234.2,451.1,234.4,451.5,234.7,451.8z M243.5,462.1c0.9,0,1.6-0.3,2.2-0.9c0.6-0.6,0.9-1.3,0.9-2.2
					c0-0.9-0.3-1.6-0.9-2.2c-0.6-0.6-1.3-0.9-2.2-0.9c-0.9,0-1.6,0.3-2.2,0.9c-0.6,0.6-0.9,1.3-0.9,2.2s0.3,1.6,0.9,2.2
					C241.9,461.8,242.7,462.1,243.5,462.1z M242.4,460.1c0.3,0.3,0.7,0.4,1.1,0.4c0.4,0,0.8-0.1,1.1-0.4c0.3-0.3,0.5-0.7,0.5-1.1
					s-0.2-0.8-0.5-1.1c-0.3-0.3-0.7-0.5-1.1-0.5c-0.4,0-0.8,0.1-1.1,0.4s-0.4,0.7-0.4,1.1C242,459.4,242.1,459.8,242.4,460.1z"/>
			</g>
		</g>
		<g id="Group_12_Copy">
			<path id="Rectangle_15" class="st6" d="M301.8,400.5h98c2.2,0,4,1.8,4,4v70.3c0,2.2-1.8,4-4,4h-98c-2.2,0-4-1.8-4-4v-70.3
				C297.8,402.3,299.6,400.5,301.8,400.5z"/>
			<g id="Group_11_x5F_2">
				<path id="_x38_8.24_x25_" class="st7" d="M352.7,461.9v-2.1h-6.5l4.1-4.3c0.7-0.7,1.2-1.3,1.5-1.9c0.3-0.6,0.5-1.3,0.5-2
					c0-1.3-0.4-2.2-1.3-3c-0.8-0.7-1.9-1.1-3.2-1.1c-1.4,0-2.5,0.4-3.3,1.2c-0.8,0.8-1.2,1.9-1.2,3.4v0.8l2.3,0.2v-1
					c0-0.9,0.2-1.6,0.6-2c0.4-0.4,1-0.6,1.7-0.6c0.7,0,1.2,0.2,1.6,0.6c0.4,0.4,0.6,0.9,0.6,1.6c0,0.9-0.5,1.8-1.4,2.8l-5.6,5.8v1.7
					H352.7z M319.9,462.1c0.9,0,1.8-0.2,2.5-0.5c0.7-0.3,1.3-0.8,1.8-1.5c0.4-0.7,0.7-1.4,0.7-2.3c0-0.9-0.2-1.6-0.7-2.2
					c-0.4-0.6-1-1.1-1.8-1.4c0.5-0.3,0.9-0.7,1.2-1.2c0.3-0.5,0.5-1.1,0.5-1.7c0-1.1-0.4-1.9-1.2-2.6c-0.8-0.7-1.8-1-3-1
					c-1.2,0-2.3,0.3-3.1,1c-0.8,0.7-1.2,1.6-1.2,2.6c0,0.6,0.2,1.2,0.5,1.7c0.3,0.5,0.7,0.9,1.3,1.2c-0.8,0.3-1.4,0.8-1.8,1.4
					s-0.6,1.4-0.6,2.2c0,0.9,0.2,1.6,0.7,2.3c0.4,0.7,1,1.2,1.8,1.5C318.1,461.9,318.9,462.1,319.9,462.1z M319.9,453.4
					c-0.6,0-1.1-0.2-1.5-0.6c-0.4-0.4-0.6-0.9-0.6-1.5c0-0.6,0.2-1,0.6-1.4c0.4-0.4,0.9-0.6,1.5-0.6c0.6,0,1.1,0.2,1.5,0.6
					c0.4,0.4,0.6,0.9,0.6,1.4c0,0.6-0.2,1.1-0.6,1.5C321,453.2,320.5,453.4,319.9,453.4z M318,459.4c0.5,0.5,1.1,0.7,1.9,0.7
					c0.8,0,1.4-0.2,1.9-0.7c0.5-0.5,0.8-1.1,0.8-1.8c0-0.7-0.3-1.3-0.8-1.8c-0.5-0.4-1.1-0.7-1.9-0.7c-0.8,0-1.4,0.2-1.9,0.7
					c-0.5,0.4-0.8,1-0.8,1.8C317.2,458.3,317.4,458.9,318,459.4z M330.9,462.1c0.9,0,1.8-0.2,2.5-0.5c0.7-0.3,1.3-0.8,1.8-1.5
					c0.4-0.7,0.7-1.4,0.7-2.3c0-0.9-0.2-1.6-0.7-2.2c-0.4-0.6-1-1.1-1.8-1.4c0.5-0.3,0.9-0.7,1.2-1.2c0.3-0.5,0.5-1.1,0.5-1.7
					c0-1.1-0.4-1.9-1.2-2.6c-0.8-0.7-1.8-1-3-1c-1.2,0-2.3,0.3-3.1,1c-0.8,0.7-1.2,1.6-1.2,2.6c0,0.6,0.2,1.2,0.5,1.7
					c0.3,0.5,0.7,0.9,1.3,1.2c-0.8,0.3-1.4,0.8-1.8,1.4s-0.6,1.4-0.6,2.2c0,0.9,0.2,1.6,0.7,2.3c0.4,0.7,1,1.2,1.8,1.5
					C329.2,461.9,330,462.1,330.9,462.1z M329.4,452.8c0.4,0.4,0.9,0.6,1.5,0.6c0.6,0,1.1-0.2,1.5-0.6c0.4-0.4,0.6-0.9,0.6-1.5
					c0-0.6-0.2-1-0.6-1.4c-0.4-0.4-0.9-0.6-1.5-0.6c-0.6,0-1.1,0.2-1.5,0.6c-0.4,0.4-0.6,0.9-0.6,1.4
					C328.8,452,329,452.5,329.4,452.8z M330.9,460c-0.8,0-1.4-0.2-1.9-0.7c-0.5-0.5-0.8-1.1-0.8-1.8c0-0.7,0.3-1.3,0.8-1.8
					c0.5-0.4,1.1-0.7,1.9-0.7c0.8,0,1.4,0.2,1.9,0.7c0.5,0.4,0.8,1,0.8,1.8c0,0.8-0.3,1.4-0.8,1.8S331.7,460,330.9,460z
					 M340.4,461.7c-0.3,0.3-0.6,0.4-1,0.4c-0.4,0-0.7-0.1-1-0.4c-0.3-0.3-0.4-0.6-0.4-1c0-0.4,0.1-0.7,0.4-1c0.3-0.3,0.6-0.4,1-0.4
					c0.4,0,0.7,0.1,1,0.4c0.3,0.3,0.4,0.6,0.4,1C340.8,461.1,340.6,461.4,340.4,461.7z M362.4,459.2v2.8h-2.3v-2.8h-6.6v-2.1
					l5.4-9.3h3.5v9.3h1.9v2H362.4z M360.1,457.1h-4.4l4.4-7.8V457.1z M370.4,452.9c-0.6,0.6-1.3,0.9-2.2,0.9c-0.9,0-1.6-0.3-2.2-0.9
					c-0.6-0.6-0.9-1.3-0.9-2.2c0-0.9,0.3-1.6,0.9-2.2c0.6-0.6,1.3-0.9,2.2-0.9c0.9,0,1.6,0.3,2.2,0.9c0.6,0.6,0.9,1.3,0.9,2.2
					C371.3,451.6,371,452.3,370.4,452.9z M369.3,461.9l7.5-14.1h-2l-7.4,14.1H369.3z M367.2,451.8c0.3,0.3,0.7,0.5,1.1,0.5
					c0.4,0,0.8-0.1,1.1-0.5c0.3-0.3,0.4-0.7,0.4-1.1c0-0.4-0.1-0.8-0.4-1.1c-0.3-0.3-0.7-0.4-1.1-0.4c-0.4,0-0.8,0.1-1.1,0.4
					c-0.3,0.3-0.5,0.7-0.5,1.1C366.7,451.1,366.9,451.5,367.2,451.8z M376,462.1c0.9,0,1.6-0.3,2.2-0.9c0.6-0.6,0.9-1.3,0.9-2.2
					c0-0.9-0.3-1.6-0.9-2.2c-0.6-0.6-1.3-0.9-2.2-0.9c-0.9,0-1.6,0.3-2.2,0.9c-0.6,0.6-0.9,1.3-0.9,2.2s0.3,1.6,0.9,2.2
					C374.4,461.8,375.2,462.1,376,462.1z M374.9,460.1c0.3,0.3,0.7,0.4,1.1,0.4c0.4,0,0.8-0.1,1.1-0.4c0.3-0.3,0.5-0.7,0.5-1.1
					s-0.2-0.8-0.5-1.1c-0.3-0.3-0.7-0.5-1.1-0.5c-0.4,0-0.8,0.1-1.1,0.4s-0.4,0.7-0.4,1.1C374.5,459.4,374.6,459.8,374.9,460.1z"/>
			</g>
		</g>
		<g id="Group_13">
			<path id="Rectangle_Copy_14" class="st6" d="M180.2,276.2h219.6c2.2,0,4,1.8,4,4v100c0,2.2-1.8,4-4,4H180.2c-2.2,0-4-1.8-4-4
				v-100C176.2,278,178,276.2,180.2,276.2z"/>
			<path id="_x38_9.74_x25_" class="st8" d="M311.6,341.4c-1.3,1.3-2.8,1.9-4.7,1.9c-1.8,0-3.4-0.6-4.7-1.9
				c-1.3-1.3-1.9-2.9-1.9-4.7c0-1.8,0.6-3.4,1.9-4.7c1.3-1.3,2.8-1.9,4.7-1.9c1.8,0,3.4,0.6,4.7,1.9c1.3,1.3,1.9,2.8,1.9,4.7
				C313.6,338.5,312.9,340.1,311.6,341.4z M210.4,359.9c-1.6,0.7-3.4,1.1-5.4,1.1c-2,0-3.8-0.4-5.4-1.1c-1.6-0.7-2.9-1.8-3.8-3.2
				c-0.9-1.4-1.4-3-1.4-4.9c0-1.8,0.5-3.4,1.4-4.8c0.9-1.4,2.2-2.4,3.8-3.1c-1.2-0.7-2.1-1.5-2.7-2.6c-0.7-1.1-1-2.2-1-3.6
				c0-2.3,0.9-4.2,2.6-5.6c1.7-1.4,3.9-2.2,6.5-2.2c2.6,0,4.8,0.7,6.5,2.2c1.7,1.5,2.6,3.3,2.6,5.6c0,1.3-0.3,2.5-1,3.6
				c-0.6,1.1-1.5,1.9-2.7,2.6c1.6,0.7,2.8,1.7,3.8,3.1c0.9,1.4,1.4,2.9,1.4,4.7c0,1.8-0.5,3.5-1.4,4.9
				C213.2,358.1,212,359.2,210.4,359.9z M201.7,341.3c0.9,0.8,2,1.3,3.3,1.3c1.3,0,2.3-0.4,3.2-1.3c0.9-0.8,1.3-1.9,1.3-3.1
				c0-1.2-0.4-2.2-1.3-3c-0.9-0.8-2-1.2-3.3-1.2c-1.3,0-2.4,0.4-3.3,1.2c-0.9,0.8-1.3,1.8-1.3,3
				C200.4,339.4,200.8,340.4,201.7,341.3z M205,356.6c-1.6,0-3-0.5-4.1-1.5c-1.1-1-1.6-2.3-1.6-3.9c0-1.6,0.5-2.9,1.6-3.8
				c1.1-1,2.4-1.4,4.1-1.4c1.6,0,3,0.5,4.1,1.4c1.1,1,1.6,2.2,1.6,3.8c0,1.6-0.5,2.9-1.6,3.9C208,356.1,206.6,356.6,205,356.6z
				 M236.5,347.7l-9.7,12.9h-5.6l8-10.3c-0.6,0.1-1.2,0.2-1.9,0.2c-1.7,0-3.2-0.4-4.7-1.2c-1.4-0.8-2.6-1.9-3.6-3.5
				c-0.9-1.5-1.4-3.3-1.4-5.2c0-2,0.5-3.8,1.4-5.4c1-1.6,2.3-2.8,3.9-3.7c1.6-0.9,3.4-1.3,5.4-1.3c2,0,3.8,0.4,5.5,1.3
				c1.6,0.9,2.9,2.1,3.9,3.7c1,1.6,1.4,3.4,1.4,5.3C239.1,342.9,238.2,345.4,236.5,347.7z M228.5,346.9c-1.8,0-3.3-0.6-4.4-1.7
				c-1.1-1.1-1.7-2.6-1.7-4.5c0-1.8,0.6-3.3,1.7-4.4c1.2-1.1,2.6-1.7,4.4-1.7c1.8,0,3.3,0.5,4.4,1.6c1.1,1.1,1.7,2.6,1.7,4.4
				c0,1.8-0.6,3.2-1.7,4.4C231.7,346.3,230.2,346.9,228.5,346.9z M248.2,360.2c-0.6,0.6-1.3,0.9-2.1,0.9c-0.8,0-1.5-0.3-2.1-0.9
				c-0.6-0.6-0.9-1.3-0.9-2.1c0-0.8,0.3-1.5,0.9-2.1c0.6-0.6,1.3-0.9,2.1-0.9c0.8,0,1.5,0.3,2.1,0.9c0.6,0.6,0.9,1.3,0.9,2.1
				C249.1,358.9,248.8,359.6,248.2,360.2z M260.3,360.6l14.2-26.2v-3.9h-20.9v4.4H269l-14.2,25.7H260.3z M294.7,354.7v5.9h-4.9v-5.9
				h-14.1v-4.4l11.6-19.8h7.4v19.8h4.1v4.4H294.7z M289.9,350.4h-9.4l9.4-16.7V350.4z M309.3,360.6l15.9-30.2H321l-15.9,30.2H309.3z
				 M304.6,339c0.6,0.6,1.4,1,2.3,1c0.9,0,1.7-0.3,2.3-1c0.6-0.6,0.9-1.4,0.9-2.3c0-0.9-0.3-1.7-1-2.3s-1.4-0.9-2.3-0.9
				c-0.9,0-1.7,0.3-2.3,0.9c-0.6,0.6-1,1.4-1,2.3C303.7,337.6,304,338.4,304.6,339z M323.6,361c1.8,0,3.4-0.6,4.6-1.9
				c1.3-1.3,1.9-2.8,1.9-4.7c0-1.8-0.6-3.4-1.9-4.7c-1.3-1.3-2.8-1.9-4.6-1.9c-1.8,0-3.4,0.6-4.7,1.9c-1.3,1.3-1.9,2.8-1.9,4.7
				s0.6,3.4,1.9,4.7C320.2,360.3,321.7,361,323.6,361z M321.2,356.7c0.6,0.6,1.4,1,2.3,1c0.9,0,1.7-0.3,2.3-1c0.6-0.6,1-1.4,1-2.3
				c0-0.9-0.3-1.7-1-2.3c-0.7-0.6-1.4-1-2.3-1c-0.9,0-1.7,0.3-2.3,0.9s-1,1.4-1,2.3C320.3,355.3,320.6,356,321.2,356.7z"/>
		</g>
	</g>
</g>
</svg>
